<?xml version="1.0" encoding="utf-8"?>
<!-- Generator: Adobe Illustrator 23.0.3, SVG Export Plug-In . SVG Version: 6.00 Build 0)  -->
<svg version="1.1" id="Layer_1" xmlns="http://www.w3.org/2000/svg" xmlns:xlink="http://www.w3.org/1999/xlink" x="0px" y="0px"
	 viewBox="0 0 50 50" style="enable-background:new 0 0 50 50;" xml:space="preserve">
<style type="text/css">
	.st0{fill:#6C6E7A;}
</style>
<path class="st0" d="M34.3,17.8H15.8c-1.6,0-2.9-1.3-2.9-2.9l0,0c0-1.6,1.3-2.9,2.9-2.9h18.6c1.6,0,2.9,1.3,2.9,2.9l0,0
	C37.2,16.5,35.9,17.8,34.3,17.8z"/>
<path class="st0" d="M34.3,37.8H15.8c-1.6,0-2.9-1.3-2.9-2.9l0,0c0-1.6,1.3-2.9,2.9-2.9h18.6c1.6,0,2.9,1.3,2.9,2.9l0,0
	C37.2,36.5,35.9,37.8,34.3,37.8z"/>
<path class="st0" d="M34.3,27.9H15.8c-1.6,0-2.9-1.3-2.9-2.9l0,0c0-1.6,1.3-2.9,2.9-2.9h18.6c1.6,0,2.9,1.3,2.9,2.9l0,0
	C37.2,26.6,35.9,27.9,34.3,27.9z"/>
</svg>
