<?xml version="1.0" encoding="utf-8"?>
<!-- Generator: Adobe Illustrator 23.0.6, SVG Export Plug-In . SVG Version: 6.00 Build 0)  -->
<svg version="1.1" id="Layer_1" xmlns="http://www.w3.org/2000/svg" xmlns:xlink="http://www.w3.org/1999/xlink" x="0px" y="0px"
	 viewBox="0 0 371 63" style="enable-background:new 0 0 371 63;" xml:space="preserve">
<style type="text/css">
	.st0{fill:#BF3434;}
	.st1{fill:#FFFFFF;}
	.st2{fill:none;}
	.st3{font-family:'Overpass-Light';}
	.st4{font-size:24px;}
</style>
<g>
	<path class="st0" d="M34.5,58.5c-14.9,0-27-12.1-27-27s12.1-27,27-27h302c14.9,0,27,12.1,27,27s-12.1,27-27,27H34.5z"/>
	<path class="st1" d="M336.5,6C350.6,6,362,17.4,362,31.5l0,0c0,14.1-11.4,25.5-25.5,25.5h-302C20.4,57,9,45.6,9,31.5l0,0
		C9,17.4,20.4,6,34.5,6H336.5 M336.5,3h-302C18.8,3,6,15.8,6,31.5S18.8,60,34.5,60h302c15.7,0,28.5-12.8,28.5-28.5S352.2,3,336.5,3
		L336.5,3z"/>
</g>
<rect x="72" y="21.7" class="st2" width="257" height="24.3"/>
<text transform="matrix(1 0 0 1 72.043 39.0693)" class="st1 st3 st4">Download PDF Here</text>
<g>
	<rect x="36.1" y="15.9" class="st1" width="11" height="17.6"/>
	<polygon class="st1" points="31,31 53,31 42,48.1 	"/>
</g>
</svg>
