<?xml version="1.0" encoding="utf-8"?>
<!-- Generator: Adobe Illustrator 23.0.6, SVG Export Plug-In . SVG Version: 6.00 Build 0)  -->
<svg version="1.1" id="Layer_1" xmlns="http://www.w3.org/2000/svg" xmlns:xlink="http://www.w3.org/1999/xlink" x="0px" y="0px"
	 viewBox="0 0 1667 2293.9" style="enable-background:new 0 0 1667 2293.9;" xml:space="preserve">
<style type="text/css">
	.st0{fill:#FFFFFF;}
</style>
<g id="Layer_3">
	<path class="st0" d="M1432.5,1402.4c10-26-55-19-131-341c0,0-83-234.9-151-293c1.1,0.7,22.3,12.9,73-26c0,0-84-20-100-38
		c0,0,36,7,52-2c0,0-56-22-63-36c0,0,129,34,196-30c0,0-96-9-117-22c0,0,50-22,65-48c0,0-36,12-65,11c0,0,45-14,48-20
		c0,0-143,10-212-37s-110-195-196-183c0,0-103-57-125,15c0,0-70-4-100,75c0,0-28,5-31,26c0,0-72-18-79-67c0,0-34,67,28,131
		c0,0-47,53,19,184c65.4,129.8,186.8,183.1,189,184c-1.6-0.3-69.2-11.5-92,27c0,0-40,12-39,48s-14,31-10,66c0,0-19,20-20,27
		c0,0-47,10-51,47s-10,91,36,105c0,0-13,110-21,116s-260,324-263,350c0,0,6,26,39,45c0,0-118,85-171,92s-39,85,7,86s82,8,185-6
		c0,0-32,91,54,93s179-45,272-44s57-129,57-129s46-19,83-60c0,0-15-216-5-193s188,315,327,343s255-62,284-208s-27-225-27-225
		S1422.5,1428.4,1432.5,1402.4z M894.5,1006.4c0,0-47-80-94-101c0,0-43-51-62-67c0,0,10-17,30-3s12,25,26,38c0,0,38,11,50,0
		s68,40,95,32S926.5,997.4,894.5,1006.4z"/>
</g>
</svg>
