<?xml version="1.0" encoding="utf-8"?>
<!-- Generator: Adobe Illustrator 22.1.0, SVG Export Plug-In . SVG Version: 6.00 Build 0)  -->
<svg version="1.1" id="Layer_1" xmlns="http://www.w3.org/2000/svg" xmlns:xlink="http://www.w3.org/1999/xlink" x="0px" y="0px"
	 viewBox="0 0 39.9 53.3" style="enable-background:new 0 0 39.9 53.3;" xml:space="preserve">
<path d="M38.5,10.2l-8.7-8.7C28.9,0.5,27.6,0,26.3,0H5C2.3,0,0,2.3,0,5v43.3c0,2.8,2.3,5,5,5h30c2.8,0,5-2.3,5-5V13.7
	C40,12.4,39.5,11.1,38.5,10.2z M34.6,13.3h-7.9V5.4L34.6,13.3z M5,48.3V5h16.7v10.8c0,1.4,1.1,2.5,2.5,2.5H35v30L5,48.3L5,48.3z
	 M31,33.4c-1.3-1.2-4.9-0.9-6.7-0.7c-1.8-1.1-3-2.6-3.8-4.8c0.4-1.7,1.1-4.2,0.6-5.8c-0.4-2.7-3.9-2.5-4.4-0.6c-0.5,1.7,0,4,0.7,7
	c-1,2.5-2.6,5.8-3.7,7.8c-2.1,1.1-4.9,2.7-5.3,4.8c-0.3,1.7,2.7,5.8,7.9-3.2c2.3-0.8,4.9-1.7,7.1-2.1c2,1.1,4.3,1.8,5.8,1.8
	C31.9,37.4,32.1,34.4,31,33.4z M10.4,41.5c0.5-1.4,2.6-3.1,3.2-3.7C11.6,41,10.4,41.5,10.4,41.5z M18.9,21.6c0.8,0,0.7,3.3,0.2,4.3
	C18.7,24.4,18.7,21.6,18.9,21.6z M16.4,35.8c1-1.7,1.9-3.8,2.6-5.7c0.9,1.6,2,2.8,3.2,3.7C19.9,34.3,18,35.2,16.4,35.8z M30.1,35.3
	c0,0-0.5,0.6-3.9-0.8C29.8,34.2,30.5,35.1,30.1,35.3z"/>
</svg>
