<?xml version="1.0" encoding="utf-8"?>
<!-- Generator: Adobe Illustrator 23.0.3, SVG Export Plug-In . SVG Version: 6.00 Build 0)  -->
<svg version="1.1" id="Layer_1" xmlns="http://www.w3.org/2000/svg" xmlns:xlink="http://www.w3.org/1999/xlink" x="0px" y="0px"
	 viewBox="0 0 51.2 70.1" style="enable-background:new 0 0 51.2 70.1;" xml:space="preserve">
<style type="text/css">
	.st0{display:none;}
	.st1{fill:#141414;}
	.st2{fill:#4F4F4F;}
	.st3{fill:#BFBFBF;}
	.st4{opacity:0.58;fill:#757575;enable-background:new    ;}
	.st5{fill:#757575;}
	.st6{opacity:0.24;fill:#494949;enable-background:new    ;}
	.st7{fill:#B21818;}
	.st8{opacity:0.72;fill:#E5E5E5;enable-background:new    ;}
	.st9{fill:#7C1212;}
	.st10{fill:#565656;}
	.st11{fill:#3F3F3F;}
</style>
<g id="sketch_xA0_Image_1_" class="st0">
</g>
<g id="Logo">
	<path class="st1" d="M21,46.5l1.4,0.7c0,0,0.9,6,0.7,6.2c-0.3,0.2-2.2,0.4-2.7-1.3c-0.4-1.7-0.2-3.5-0.4-4
		C19.6,47.6,21,46.5,21,46.5z"/>
	<rect x="30.5" y="33.1" transform="matrix(0.9814 -0.192 0.192 0.9814 -6.7365 7.9688)" class="st1" width="14.4" height="11.3"/>
	<path class="st1" d="M20.3,11.8c0,0-0.4,4.1-0.5,4.1s-0.1,1.3,0.1,1.8c0,0-0.5-0.5-0.5-1.3c0,0-0.1,1.4,0.3,2.1
		c0,0-0.9-1.3-0.8-2.7c0,0-0.4,2.1,0.3,3.6c0,0-4.5-6.3-1.1-11.4c0,0,1.1-2.4,3.4-2c0,0,1.6-2.8,4.6-1.7s4.2,3.1,4.8,6.5
		c0.6,3.3,0.1,4.3,0.4,5.7c0,0-1-1.2-1.1-2.4c0,0,0.1,2.5,0.7,3.5c0,0-0.9-0.3-1.1-0.8c0,0,0,1.5,0.3,1.9l0.9,0.1
		c0,0,0.2,2.1,0.4,2.4c0,0,2,1,2.1,1l-0.2,0.2c0,0,1.3,0.9,2.4,0.7c0,0,1.1,2.5,1.2,3.3c0,0.8,0.8,6.3,0.9,6.5c0,0,0.6,0.5,0.7,1.3
		c0.1,0.8,0.9,3.9,0.9,3.9s1.2-0.1,1.3,0.1c0.1,0.2,0.1,4.3,0.1,4.3s1.4,2.2,0.5,3c0,0-2.1,1.5-3.7,0.7c-1.5-0.8-0.8-2.7-0.8-2.7
		s-0.6,0-0.8-0.2l-1-3.6c0,0,0.3-0.6,0.9-0.8c0,0-1.2-3.4-1-5.3c0,0-1.8-4.8-1.8-5.9c0,0-1,4.5-1.2,7c-0.2,2.5,0.8,5.5,0.8,5.5
		s-2.9,0.9-3.9,2.2c0,0-3.2,6.2-3.8,8.4l-0.8,0.5c0,0-0.1,6.3-1.9,10.7c0,0-0.4,0.3-1.6,0c0,0-1.3,5.3-4.7,3.8s0.9-5.6,0.9-5.6
		S16.2,60,16,59.3c0,0,4.1-7.9,5.1-8.9c0,0-0.1-1.1,0-1.6c0,0,2.8-8.2,2.8-9.1c0,0-1.2,0.2-2.2-0.4c0,0-4.1,3.6-5.8,4.4
		c0,0,5.4,2.5,5.9,2.5c0,0-1.7,4.1-2.7,4.5c0,0-5.3-2.7-6.2-2.9s-1.9,0.3-2.2,0.1c-0.4-0.2-1.2-3.4-1.1-4.5c0.1-1.1,8.5-6.9,9.2-7.2
		c0,0,0.6-1.2,0.7-1.3l-0.3-0.6l0.4-0.6c0,0-0.9-0.2-1.3-0.8c0,0,0-0.4,0.1-0.7s-0.9-5.3-0.7-6.5c0,0-0.4,0-0.5-0.1
		c0,0-0.4-3.1-0.2-3.3c0,0,0.7-0.4,0.8-0.4c0,0-0.3-2.2,0.5-2.6s1.8-1.4,2.2-0.7c0.4,0.7,0,2.4,0,2.4l0.7,0.1c0,0,0.2,3.2,0,3.6
		c0,0-0.1,0.3-0.5,0.5c0,0.2,0.3,1.4,0.3,1.5c0,0,1.2-3,1.1-3.6c0,0,2.2-0.9,2.5-1.2c0,0,1.1-1.5,1.2-2.1L20.3,11.8z"/>
	<path class="st2" d="M25.7,19.9c0,0,0.5,0.1,0.6,0.1c0.2,0,3.2-2.9,2.1-5.5C28.5,14.5,26.5,19.6,25.7,19.9z"/>
	<path class="st1" d="M19.8,16.4c0,0,1.6,2.1,2.6,2.6s2.9,1.2,3.8,0.9c0,0,2.3-2,2.4-4.4l-0.2-1.2"/>
	<path class="st3" d="M22.4,16.8v0.7l-1.3,0.6c0,0-0.4-0.4-0.4-0.5L22.4,16.8z"/>
	<path class="st3" d="M27.2,13.3L26,14.6l-7.4,0.8l-0.3-0.7c0.3-1,1-2,1.8-2.7c1.6-1.5,3.7-2.3,3.7-2.3c1.5,0.8,3.7-0.1,3.8-0.2
		C26.8,10.7,27.2,13.3,27.2,13.3z"/>
	<path class="st4" d="M23.8,9.7v1.4c0,0-2.6,1.4-3.1,2.1c0,0-0.5-0.5-0.5-1.2C21.7,10.5,23.8,9.7,23.8,9.7z"/>
	<path class="st4" d="M27.2,13.3l-0.6-0.1c-0.8-1,0-3,0-3l0.9-0.8C26.8,10.7,27.2,13.3,27.2,13.3z"/>
	<path class="st5" d="M26.6,13.2c0,0-2.3,3.1-5.7,4.6c0,0-0.1-0.1-0.3-0.2c-0.2-0.1-0.4-0.3-0.6-0.4c-0.1-0.1-0.2-0.2-0.3-0.2
		c-0.1-0.1-0.2-0.2-0.3-0.3c-0.1-0.1-0.2-0.2-0.2-0.3c-0.1-0.1-0.1-0.2-0.2-0.2c-0.2-0.2-0.3-0.4-0.3-0.7c0-0.1-0.1-0.2-0.1-0.3
		c0,0,0.8-3.1,5.2-4.9c0,0,1.9,0.5,2.8-0.2C26.6,10.2,26.2,12.4,26.6,13.2z"/>
	<path class="st6" d="M26.6,13.2c0,0-2.3,3.1-5.7,4.6c0,0-0.1-0.1-0.3-0.2c-0.2-0.1-0.4-0.3-0.6-0.4c-0.1-0.1-0.2-0.2-0.3-0.2
		c-0.1-0.1-0.2-0.2-0.3-0.3c4.5-2.7,7.2-6.5,7.2-6.5S26.2,12.4,26.6,13.2z"/>
	<path class="st7" d="M24.6,14.4c0,0-0.4,0.3-0.9,0.8c-0.7,0.6-1.6,1.4-2.4,1.9c-0.3,0.2-0.6,0.4-0.8,0.5c-0.1,0-0.1-0.1-0.2-0.1
		l0,0c-0.1-0.1-0.3-0.2-0.4-0.3c0.2-0.1,0.4-0.3,0.8-0.5c0.9-0.7,2.2-1.6,2.9-2.3c0.2-0.2,0.3-0.3,0.4-0.4c0,0,0.1-0.2,0.3-0.2
		c0.1,0,0.3,0,0.4,0.1C25,14,24.6,14.4,24.6,14.4z"/>
	<path class="st7" d="M23.5,12.4C23.5,12.4,23.4,12.4,23.5,12.4L23.5,12.4c-0.3,0.2-0.7,0.5-1.2,1c-0.9,0.7-2,1.6-2.8,2.3
		c-0.2,0.2-0.4,0.4-0.5,0.6c0,0,0,0,0,0.1c-0.1-0.2-0.2-0.3-0.3-0.5c0-0.1,0-0.1-0.1-0.2v-0.1c0,0,0.1-0.1,0.3-0.3
		c0.7-0.6,2.1-2,3.1-2.8c0.3-0.2,0.5-0.4,0.7-0.5c0,0,0.5-0.3,0.7-0.1C23.5,11.9,23.7,12.1,23.5,12.4z"/>
	<path class="st7" d="M25.4,12c-0.1,0.2-0.3,0.4-0.3,0.4s-0.3,0.3-0.9,0.8c-0.3,0.3-0.6,0.6-1,0.9l0,0c-0.9,0.8-2.1,1.8-2.9,2.4
		c-0.3,0.2-0.6,0.4-0.8,0.5c-0.2-0.1-0.3-0.3-0.4-0.4c0,0,0,0,0-0.1c0.1-0.1,0.3-0.3,0.7-0.5c1.2-0.9,3.3-2.7,4.3-3.7
		c0.2-0.2,0.3-0.3,0.4-0.4c0,0,0.4-0.5,0.8-0.2C25.5,11.7,25.5,11.9,25.4,12z"/>
	<path class="st8" d="M26.6,10.2c0,0-1.2,1.4-1.3,1.4l0.1,0.2C25.4,11.8,26.5,10.5,26.6,10.2z"/>
	<polygon class="st1" points="22.6,23.6 22.2,23.8 15,14.4 15,14 15.4,14.2 	"/>
	<path class="st9" d="M23.5,12.4c0,0-0.7,0.5-1.3,1c0-0.1,0-0.4,0-0.6c0-0.1-0.1-0.2-0.1-0.3c0.3-0.2,0.5-0.4,0.7-0.5
		c0,0,0.5-0.3,0.7-0.1C23.5,11.9,23.7,12.1,23.5,12.4z"/>
	<path class="st9" d="M25.4,12c-0.1,0.2-0.3,0.4-0.3,0.4s-0.3,0.3-0.9,0.8c0-0.1,0-0.3,0-0.6c0-0.2-0.1-0.3-0.1-0.3
		c0.2-0.2,0.3-0.3,0.4-0.4c0,0,0.4-0.5,0.8-0.2C25.5,11.7,25.5,11.9,25.4,12z"/>
	<path class="st9" d="M24.6,14.4c0,0-0.4,0.3-0.9,0.8c0-0.1,0.1-0.3,0-0.6c0-0.1-0.1-0.2-0.1-0.3c0.2-0.2,0.3-0.3,0.4-0.4
		c0,0,0.1-0.2,0.3-0.2c0.1,0,0.3,0,0.4,0.1C25,14,24.6,14.4,24.6,14.4z"/>
	<path class="st9" d="M18.9,16.2C18.9,16.2,18.9,16.3,18.9,16.2c-0.1-0.1-0.2-0.3-0.3-0.4c0-0.1,0-0.1-0.1-0.2v-0.1
		c0,0,0.1-0.1,0.3-0.3c0.1,0.1,0.3,0.3,0.5,0.4C19.2,15.9,19.1,16.1,18.9,16.2z"/>
	<path class="st9" d="M20.4,16.5c-0.3,0.2-0.6,0.4-0.8,0.5c-0.2-0.1-0.3-0.3-0.4-0.4c0,0,0,0,0-0.1c0.1-0.1,0.3-0.3,0.7-0.5
		C20,16.1,20.2,16.3,20.4,16.5z"/>
	<path class="st10" d="M25.4,12c-0.2-0.6-0.7-0.2-0.7-0.2s0,0.1-0.1,0.1c-0.8,1-5.3,4.6-5.4,4.7l-0.1-0.1c0.6-0.4,4.8-3.8,5.4-4.7
		c0,0,0.4-0.5,0.8-0.2C25.5,11.7,25.5,11.9,25.4,12z"/>
	<path class="st9" d="M21.3,17.1c-0.3,0.2-0.6,0.4-0.8,0.5c-0.1,0-0.1-0.1-0.2-0.1l0,0c-0.1-0.1-0.3-0.2-0.4-0.3
		c0.2-0.1,0.4-0.3,0.8-0.5C20.9,16.9,21.1,17,21.3,17.1z"/>
	<path class="st10" d="M24.6,14.4c0,0-0.1,0.1-0.2,0.1c-0.6,0.5-2.8,2.5-3.9,3.1c-0.1,0-0.1-0.1-0.2-0.1c1.3-0.6,3.4-2.4,4.1-3.1
		c0.1-0.1,0.2-0.3,0.2-0.3c0.1-0.3-0.3-0.5-0.3-0.5c0.1,0,0.3,0,0.4,0.1C25,14,24.6,14.4,24.6,14.4z"/>
	<path class="st10" d="M23.5,12.4C23.5,12.4,23.4,12.4,23.5,12.4c-0.1,0,0.1-0.4-0.2-0.5c-0.1,0-0.2,0-0.3,0.1
		c-0.5,0.2-1.2,0.8-2.4,1.8c-0.6,0.5-1.2,1.2-2,2c0-0.1,0-0.1-0.1-0.2c0,0,3.1-3.1,4.2-3.7c0,0,0.1,0,0.2-0.1c0.2-0.1,0.4-0.1,0.6,0
		C23.6,11.9,23.7,12.2,23.5,12.4z"/>
	<path class="st11" d="M23.5,12.4C23.5,12.4,23.4,12.4,23.5,12.4c-0.1,0,0.1-0.4-0.2-0.5c-0.1,0-0.2,0-0.3,0.1v-0.1
		c0.2-0.1,0.4-0.1,0.6,0C23.6,11.9,23.7,12.2,23.5,12.4z"/>
	<path class="st11" d="M25.4,12c-0.2-0.6-0.7-0.2-0.7-0.2s0,0.1-0.1,0.1l-0.1-0.1c0,0,0.4-0.5,0.8-0.2C25.5,11.7,25.5,11.9,25.4,12z
		"/>
	<path class="st11" d="M24.6,14.4c0,0-0.1,0.1-0.2,0.1l-0.1-0.1c0.1-0.1,0.2-0.3,0.2-0.3c0.1-0.3-0.3-0.5-0.3-0.5
		c0.1,0,0.3,0,0.4,0.1C25,14,24.6,14.4,24.6,14.4z"/>
</g>
</svg>
