<?xml version="1.0" encoding="utf-8"?>
<!-- Generator: Adobe Illustrator 22.1.0, SVG Export Plug-In . SVG Version: 6.00 Build 0)  -->
<svg version="1.1" id="Layer_1" xmlns="http://www.w3.org/2000/svg" xmlns:xlink="http://www.w3.org/1999/xlink" x="0px" y="0px"
	 viewBox="0 0 50 50" style="enable-background:new 0 0 50 50;" xml:space="preserve">
<style type="text/css">
	.st0{fill:#FFFFFF;}
</style>
<g>
	<polygon class="st0" points="5.3,38.9 5.3,14.8 7.1,14.8 8.6,11.1 23.9,11.1 25.1,14.7 42.9,14.7 42.9,38.9 	"/>
	<path d="M23.5,11.6l1.2,3.6h17.7v23.2H5.8V15.3l1.6,0l1.5-3.7H23.5 M24.2,10.6h-0.7H8.9H8.2L8,11.2l-1.2,3.1l-0.9,0l-1,0v1v23.1v1
		h1h36.6h1v-1V15.2v-1h-1h-17l-1-2.9L24.2,10.6L24.2,10.6z"/>
</g>
<g>
	<polygon class="st0" points="5.6,38.9 12.4,17.9 46.9,17.9 43.2,38.9 	"/>
	<path d="M46.3,18.4l-3.5,20H6.3l6.5-20C13,18.4,46.3,18.4,46.3,18.4 M47.5,17.4h-1.2H12.8h-0.7l-0.2,0.7l-6.5,20l-0.4,1.3h1.4h36.5
		h0.8l0.1-0.8l3.5-20L47.5,17.4L47.5,17.4z"/>
</g>
</svg>
